<?xml version="1.0" encoding="utf-8"?><!-- Uploaded to: SVG Repo, www.svgrepo.com, Generator: SVG Repo Mixer Tools --> 
<svg width="800px" height="800px" viewBox="0 0 64 64" xmlns="http://www.w3.org/2000/svg" xmlns:xlink="http://www.w3.org/1999/xlink" aria-hidden="true" role="img" class="iconify iconify--emojione-monotone" preserveAspectRatio="xMidYMid meet"><path d="M12.47 55.191l-2.813-2.812v2.055l2.813 2.812z" fill="#F97316"></path><path d="M19.97 59.344v-2.188H14.5v.067l-1.719-1.719v2.055l1.719 1.72v.065z" fill="#F97316"></path><path d="M20.281 57.156h2.97v2.188h-2.97z" fill="#F97316"></path><path d="M27.405 59.656h3.689V62h-3.689z" fill="#F97316"></path><path d="M15.906 59.656h5.938V62h-5.938z" fill="#F97316"></path><path d="M9.344 52.066l-3.437-3.437v2.055l3.437 3.439z" fill="#F97316"></path><path d="M22.156 59.656h4.937V62h-4.937z" fill="#F97316"></path><path d="M5.594 48.316l-2.499-2.5v2.055l2.499 2.502z" fill="#F97316"></path><path d="M2 49.5l2.344 2.344v-2.278L2 47.223z" fill="#F97316"></path><path d="M2.781 45.504L2 44.723v2.054l.781.784z" fill="#F97316"></path><path d="M6.845 52.066l-2.189-2.187v2.277l2.5 2.5l-.311-.312z" fill="#F97316"></path><path d="M7.156 52.379v2.277l4.063 4.063v-2.278z" fill="#F97316"></path><path d="M14.5 59.723l-2.968-2.969v2.277l-.313-.312L14.5 62h1.094v-2.344H14.5z" fill="#F97316"></path><path d="M47.781 57.156h5.313v2.188h-5.313z" fill="#F97316"></path><path d="M45.751 59.656h5.391V62h-5.391z" fill="#F97316"></path><path d="M56.532 59.656H62V62h-5.468z" fill="#F97316"></path><path d="M51.453 59.656h4.766V62h-4.766z" fill="#F97316"></path><path d="M53.406 57.156h4.688v2.188h-4.688z" fill="#F97316"></path><path d="M58.407 57.156H62v2.188h-3.593z" fill="#F97316"></path><path d="M44.031 57.156h3.438v2.188h-3.438z" fill="#F97316"></path><path d="M34.656 59.656h5.47V62h-5.47z" fill="#F97316"></path><path d="M33.25 57.156h4.844v2.188H33.25z" fill="#F97316"></path><path d="M38.406 57.156h5.313v2.188h-5.313z" fill="#F97316"></path><path d="M40.438 59.656h5V62h-5z" fill="#F97316"></path><path d="M31.407 59.656h2.937V62h-2.937z" fill="#F97316"></path><path d="M49.501 2H2V44.279l2.344 2.344v-2.279l.313.313v2.277l3.438 3.439v-2.279l.313.313v2.277l2.188 2.188v-2.276l.312.312v2.279l3.594 3.592v.066h3.595v-2.342h.312v2.342h4.845V37h9.999V56.844h2.969v-2.342h.313v2.342h5.313v-2.342h.313v2.342h4.063v-2.342h.312v2.342h4.61v-2.342h.312v2.342h4.766v-2.342h.313v2.342H62V14.5L49.501 2m-1.036 2.5l7.5 7.5h-40.43l-7.5-7.5h40.43M3.25 25.75l2.5 2.5v5l-2.5-2.5v-5m19.001 27.752h-7.335L3 41.586v-7.172l10.793 10.793l.293.293H22.251v8.002M6.641 29.648L7 29.5l.358.855s-.106.367.094 1.162c.096.377.173.795.173 1.223c0 .416-.103.592-.16.881c-.108.531-.218 1.063-.465.818c-.246-.242-.356-.99-.465-1.736c-.057-.402-.159-.781-.159-1.195c0-.43.077-.693.173-.883c.2-.398.092-.977.092-.977m1.61 6.102v-5l2.499 2.5v5l-2.499-2.5m3.391-1.102l.359-.148l.358.855s-.108.369.093 1.162c.095.379.173.795.173 1.225c0 .414-.103.59-.159.879c-.109.531-.219 1.063-.465.818c-.248-.242-.357-.99-.466-1.736c-.058-.402-.16-.781-.16-1.195c0-.43.078-.693.173-.883c.201-.398.094-.977.094-.977m1.608 6.102v-5L14.5 37H17v5h-2.5l-1.25-1.25m5.801-3.242L20.125 37l1.075.508s-.322.479.279 1.082c.289.287.521.633.521 1.066c0 .42-.305.701-.479 1.051c-.324.647-.658 1.293-1.396 1.293c-.737 0-1.071-.646-1.396-1.293c-.174-.35-.479-.631-.479-1.051c0-.434.233-.779.52-1.066c.603-.604.281-1.082.281-1.082M61 53.502H34.25V45.5H61v8.002M35.301 37.508L36.376 37l1.073.508s-.322.479.281 1.082c.286.287.521.633.521 1.066c0 .42-.307.701-.48 1.051c-.325.647-.659 1.293-1.395 1.293c-.738 0-1.072-.646-1.396-1.293c-.175-.35-.479-.631-.479-1.051c0-.434.232-.779.52-1.066c.602-.604.28-1.082.28-1.082M39.5 42v-5h13.751v5H39.5m15.802-4.492L56.375 37l1.074.508s-.322.479.281 1.082c.286.287.52.633.52 1.066c0 .42-.305.701-.479 1.051c-.324.647-.659 1.293-1.396 1.293c-.736 0-1.072-.646-1.396-1.293c-.175-.35-.479-.631-.479-1.051c0-.434.233-.779.521-1.066c.603-.604.281-1.082.281-1.082M61 42h-1.5v-5H61v5m0-7.5H14.5L3.25 23.249v-5L14.5 29.5H61v5" fill="#F97316"></path><path d="M25.75 47h5.001L32 45.75l-1.249-1.25H25.75l-1.25 1.25z" fill="#F97316"></path><circle cx="30.75" cy="50.75" r="1.25" fill="#F97316"></circle><circle cx="25.75" cy="50.75" r="1.25" fill="#F97316"></circle><path d="M24.5 41.438c0 .168.122.281.191.42c.13.26.264.518.559.518s.43-.258.559-.518c.069-.139.192-.252.192-.42c0-.174-.095-.313-.209-.426c-.241-.242-.112-.434-.112-.434l-.43-.203l-.431.203s.131.191-.111.434c-.113.113-.208.252-.208.426" fill="#F97316"></path><path d="M26.5 41.438c0 .168.121.281.191.42c.131.26.264.518.559.518c.294 0 .429-.258.558-.518c.07-.139.192-.252.192-.42c0-.174-.094-.313-.208-.426c-.241-.242-.112-.434-.112-.434l-.43-.203l-.429.203s.128.191-.113.434c-.114.113-.208.252-.208.426" fill="#F97316"></path><path d="M28.5 41.438c0 .168.123.281.192.42c.129.26.264.518.558.518c.296 0 .429-.258.56-.518c.069-.139.191-.252.191-.42c0-.174-.095-.313-.209-.426c-.241-.242-.112-.434-.112-.434l-.43-.203l-.43.203s.129.191-.112.434c-.113.113-.208.252-.208.426" fill="#F97316"></path><path d="M30.5 41.438c0 .168.122.281.192.42c.129.26.264.518.558.518c.295 0 .429-.258.559-.518c.07-.139.191-.252.191-.42c0-.174-.094-.313-.208-.426c-.241-.242-.111-.434-.111-.434l-.431-.203l-.429.203s.128.191-.113.434c-.114.113-.208.252-.208.426" fill="#F97316"></path></svg>