<?xml version="1.0" encoding="iso-8859-1"?>
<!-- Uploaded to: SVG Repo, www.svgrepo.com, Generator: SVG Repo Mixer Tools -->
<svg height="800px" width="800px" version="1.1" id="Capa_1" xmlns="http://www.w3.org/2000/svg" xmlns:xlink="http://www.w3.org/1999/xlink" 
	 viewBox="0 0 465 465" xml:space="preserve">
<g>
	<path style="fill:#FDF3C2;" d="M360.259,360.705h23.129c3.165-18.673,17.939-33.448,36.612-36.613V140.907
		c-18.673-3.165-33.447-17.939-36.612-36.612H81.613c-3.165,18.673-17.94,33.447-36.613,36.612v183.185
		c18.673,3.165,33.448,17.94,36.613,36.613h248.646c4.143,0,7.5,3.357,7.5,7.5l15,0
		C352.759,364.063,356.116,360.705,360.259,360.705z M159.251,150.765c3.331-2.46,8.025-1.762,10.49,1.57l16.898,22.848
		l16.897-22.848c1.414-1.912,3.652-3.04,6.03-3.04s4.615,1.128,6.03,3.04l16.898,22.848l16.898-22.848
		c1.415-1.912,3.651-3.04,6.03-3.04c2.378,0,4.615,1.128,6.029,3.04l16.903,22.849l16.902-22.849
		c2.463-3.33,7.159-4.035,10.489-1.569c3.33,2.463,4.033,7.159,1.569,10.489l-22.932,31c-1.414,1.912-3.651,3.04-6.029,3.04
		s-4.615-1.128-6.029-3.04l-16.902-22.849l-16.899,22.849c-1.415,1.912-3.652,3.04-6.03,3.04s-4.615-1.128-6.03-3.04l-16.898-22.848
		l-16.897,22.848c-1.415,1.912-3.652,3.04-6.03,3.04s-4.615-1.128-6.03-3.04l-22.929-31
		C155.218,157.925,155.921,153.229,159.251,150.765z M97.403,220.295h270.194c4.143,0,7.5,3.357,7.5,7.5s-3.357,7.5-7.5,7.5H97.403
		c-4.143,0-7.5-3.357-7.5-7.5S93.261,220.295,97.403,220.295z M280.021,315.705h-95.04c-4.143,0-7.5-3.357-7.5-7.5
		s3.357-7.5,7.5-7.5h95.04c4.143,0,7.5,3.357,7.5,7.5S284.163,315.705,280.021,315.705z M97.403,265.295c-4.143,0-7.5-3.357-7.5-7.5
		s3.357-7.5,7.5-7.5h270.194c4.143,0,7.5,3.357,7.5,7.5s-3.357,7.5-7.5,7.5H97.403z"/>
	<path style="fill:#F97316;" d="M15,390.705h435V74.295H15V390.705z M30,134.036c0-4.143,3.357-7.5,7.5-7.5
		c16.399,0,29.742-13.342,29.742-29.741c0-4.143,3.357-7.5,7.5-7.5h315.517c4.143,0,7.5,3.357,7.5,7.5
		c0,16.399,13.342,29.741,29.741,29.741c4.143,0,7.5,3.357,7.5,7.5v196.927c0,4.143-3.357,7.5-7.5,7.5
		c-16.399,0-29.741,13.343-29.741,29.742c0,4.143-3.357,7.5-7.5,7.5h-30c-4.143,0-7.5-3.357-7.5-7.5h-15c0,4.143-3.357,7.5-7.5,7.5
		H74.742c-4.143,0-7.5-3.357-7.5-7.5c0-16.399-13.343-29.742-29.742-29.742c-4.143,0-7.5-3.357-7.5-7.5V134.036z"/>
	<path style="fill:#570100;" d="M457.5,59.295H7.5c-4.143,0-7.5,3.357-7.5,7.5v331.41c0,4.143,3.357,7.5,7.5,7.5h450
		c4.143,0,7.5-3.357,7.5-7.5V66.795C465,62.652,461.643,59.295,457.5,59.295z M450,390.705H15V74.295h435V390.705z"/>
	<path style="fill:#570100;" d="M37.5,338.463c16.399,0,29.742,13.343,29.742,29.742c0,4.143,3.357,7.5,7.5,7.5h255.517
		c4.143,0,7.5-3.357,7.5-7.5c0-4.143-3.357-7.5-7.5-7.5H81.613c-3.165-18.673-17.94-33.448-36.613-36.613V140.907
		c18.673-3.165,33.448-17.939,36.613-36.612h301.774c3.165,18.673,17.939,33.447,36.612,36.612v183.185
		c-18.673,3.165-33.447,17.94-36.612,36.613h-23.129c-4.143,0-7.5,3.357-7.5,7.5c0,4.143,3.357,7.5,7.5,7.5h30
		c4.143,0,7.5-3.357,7.5-7.5c0-16.399,13.342-29.742,29.741-29.742c4.143,0,7.5-3.357,7.5-7.5V134.036c0-4.143-3.357-7.5-7.5-7.5
		c-16.399,0-29.741-13.342-29.741-29.741c0-4.143-3.357-7.5-7.5-7.5H74.742c-4.143,0-7.5,3.357-7.5,7.5
		c0,16.399-13.343,29.741-29.742,29.741c-4.143,0-7.5,3.357-7.5,7.5v196.927C30,335.105,33.357,338.463,37.5,338.463z"/>
	<path style="fill:#570100;" d="M180.609,192.255c1.415,1.912,3.652,3.04,6.03,3.04s4.615-1.128,6.03-3.04l16.897-22.848
		l16.898,22.848c1.415,1.912,3.652,3.04,6.03,3.04s4.615-1.128,6.03-3.04l16.899-22.849l16.902,22.849
		c1.414,1.912,3.651,3.04,6.029,3.04s4.615-1.128,6.029-3.04l22.932-31c2.464-3.33,1.761-8.026-1.569-10.489
		c-3.33-2.466-8.026-1.761-10.489,1.569l-16.902,22.849l-16.903-22.849c-1.414-1.912-3.651-3.04-6.029-3.04
		c-2.379,0-4.615,1.128-6.03,3.04l-16.898,22.848l-16.898-22.848c-1.415-1.912-3.652-3.04-6.03-3.04s-4.616,1.128-6.03,3.04
		l-16.897,22.848l-16.898-22.848c-2.465-3.332-7.159-4.03-10.49-1.57c-3.33,2.464-4.033,7.16-1.57,10.49L180.609,192.255z"/>
	<path style="fill:#570100;" d="M375.098,257.795c0-4.143-3.357-7.5-7.5-7.5H97.403c-4.143,0-7.5,3.357-7.5,7.5s3.357,7.5,7.5,7.5
		h270.194C371.74,265.295,375.098,261.938,375.098,257.795z"/>
	<path style="fill:#570100;" d="M280.021,300.705h-95.04c-4.143,0-7.5,3.357-7.5,7.5s3.357,7.5,7.5,7.5h95.04
		c4.143,0,7.5-3.357,7.5-7.5S284.163,300.705,280.021,300.705z"/>
	<path style="fill:#570100;" d="M97.403,235.295h270.194c4.143,0,7.5-3.357,7.5-7.5s-3.357-7.5-7.5-7.5H97.403
		c-4.143,0-7.5,3.357-7.5,7.5S93.261,235.295,97.403,235.295z"/>
</g>
</svg>